<svg width="350" height="242" viewBox="0 0 350 242" fill="none" xmlns="http://www.w3.org/2000/svg">
<path d="M168.292 147.654C155.701 147.654 145.335 143.725 137.194 135.868C129.242 127.916 125.266 116.793 125.266 102.498C125.266 92.558 127.207 85.884 131.088 82.476C132.792 80.8667 135.443 80.062 139.04 80.062C141.123 80.062 142.164 81.056 142.164 83.044C142.164 83.7067 141.927 84.9847 141.454 86.878C140.981 88.6767 140.697 92.132 140.602 97.244C140.602 101.504 141.265 107.042 142.59 113.858C143.347 117.455 144.72 120.674 146.708 123.514C148.696 126.449 152.199 129.005 157.216 131.182C163.275 132.791 168.907 133.596 174.114 133.596C178.09 133.596 182.871 132.791 188.456 131.182C194.136 129.667 198.065 127.348 200.242 124.224C202.514 121.195 204.549 116.556 206.348 110.308C207.673 103.681 208.336 97.4333 208.336 91.564C208.336 85.6947 208.289 81.9553 208.194 80.346C208.194 79.0207 208.289 77.79 208.478 76.654C208.857 73.6247 210.466 71.542 213.306 70.406C216.241 69.1753 218.607 68.56 220.406 68.56C225.139 68.56 227.506 72.5833 227.506 80.63C226.654 99.1847 224.761 112.154 221.826 119.538C214.821 137.43 198.917 146.707 174.114 147.37C172.126 147.559 170.185 147.654 168.292 147.654ZM174.398 80.062C171.179 80.062 168.387 78.8787 166.02 76.512C163.653 74.1453 162.47 71.3527 162.47 68.134C162.47 65.294 163.606 62.7853 165.878 60.608C168.245 58.336 170.753 57.2 173.404 57.2C176.623 57.2 179.368 58.3833 181.64 60.75C184.007 63.1167 185.19 65.9093 185.19 69.128C185.19 72.3467 184.101 74.9973 181.924 77.08C179.747 79.068 177.238 80.062 174.398 80.062ZM264.637 114H260.803C258.341 114 255.88 114 253.419 114C251.052 113.905 249.017 113.29 247.313 112.154C245.609 111.018 244.094 109.598 242.769 107.894C241.538 106.095 240.544 104.06 239.787 101.788C239.029 99.516 238.414 97.1967 237.941 94.83C237.562 92.3687 237.278 89.9547 237.089 87.588C236.899 85.2213 236.805 83.044 236.805 81.056C237.183 59.8507 239.124 45.7453 242.627 38.74C245.183 33.5333 248.259 30.93 251.857 30.93C252.803 30.93 253.845 31.1193 254.981 31.498C256.779 31.498 257.679 33.6753 257.679 38.03C257.679 40.9647 256.495 50.384 254.129 66.288C253.277 76.1333 253.182 83.5647 253.845 88.582C254.507 93.5047 255.691 96.6287 257.395 97.954C258.909 99.2793 261.134 100.084 264.069 100.368C264.258 100.368 264.447 100.368 264.637 100.368V114ZM262.563 100.368H265.261C268.575 100.084 272.314 97.7173 276.479 93.268C280.266 89.1027 282.159 82.9493 282.159 74.808C282.159 68.56 282.869 64.2053 284.289 61.744C285.993 58.8093 289.117 57.342 293.661 57.342C298.868 57.342 301.471 59.4247 301.471 63.59L301.613 66.714C301.613 71.1633 301.045 75.518 299.909 79.778C298.773 84.038 297.495 88.3927 296.075 92.842C292.573 103.445 287.129 109.787 279.745 111.87C274.633 113.29 270.089 114 266.113 114C265.261 114 264.457 114 263.699 114C263.321 114 262.942 114 262.563 114V100.368ZM275.485 145.95C272.267 145.95 269.474 144.767 267.107 142.4C264.741 140.033 263.557 137.241 263.557 134.022C263.557 131.182 264.693 128.626 266.965 126.354C269.332 124.177 271.841 123.088 274.491 123.088C277.71 123.088 280.455 124.271 282.727 126.638C285.094 129.005 286.277 131.797 286.277 135.016C286.277 138.235 285.189 140.838 283.011 142.826C280.834 144.909 278.325 145.95 275.485 145.95ZM297.653 144.246C294.529 144.246 292.967 143.299 292.967 141.406C292.967 140.933 293.014 140.412 293.109 139.844C293.204 139.371 295.002 137.43 298.505 134.022C299.925 132.602 302.86 129.099 307.309 123.514C314.03 114.899 318.574 106.379 320.941 97.954C321.793 95.114 322.692 92.6053 323.639 90.428C326.952 83.044 332.585 79.352 340.537 79.352C342.43 79.352 343.661 79.8253 344.229 80.772C344.892 81.7187 345.223 83.1387 345.223 85.032C345.223 88.0613 344.608 91.422 343.377 95.114C342.241 98.7113 339.496 104.344 335.141 112.012C330.786 119.68 325.958 126.117 320.657 131.324C315.45 136.625 311.143 140.081 307.735 141.69C304.422 143.394 301.061 144.246 297.653 144.246ZM331.591 63.022C328.372 63.022 325.58 61.8387 323.213 59.472C320.846 57.1053 319.663 54.3127 319.663 51.094C319.663 48.254 320.799 45.7453 323.071 43.568C325.438 41.296 327.946 40.16 330.597 40.16C333.816 40.16 336.561 41.3433 338.833 43.71C341.2 46.0767 342.383 48.8693 342.383 52.088C342.383 55.3067 341.294 57.9573 339.117 60.04C336.94 62.028 334.431 63.022 331.591 63.022Z" fill="#704DF9"/>
<path d="M4.74 201.476C1.836 201.476 0.383999 200.596 0.383999 198.836C0.383999 198.396 0.427999 197.912 0.515999 197.384C0.604 196.944 2.276 195.14 5.532 191.972C6.852 190.652 9.58 187.396 13.716 182.204C19.964 174.196 24.188 166.276 26.388 158.444C27.18 155.804 28.016 153.472 28.896 151.448C31.976 144.584 37.212 141.152 44.604 141.152C46.364 141.152 47.508 141.592 48.036 142.472C48.652 143.352 48.96 144.672 48.96 146.432C48.96 149.248 48.388 152.372 47.244 155.804C46.188 159.148 43.636 164.384 39.588 171.512C35.54 178.64 31.052 184.624 26.124 189.464C21.284 194.392 17.28 197.604 14.112 199.1C11.032 200.684 7.908 201.476 4.74 201.476ZM82.3302 176H78.7662C76.4782 176 74.1902 176 71.9022 176C69.7022 175.912 67.8102 175.34 66.2262 174.284C64.6422 173.228 63.2342 171.908 62.0022 170.324C60.8582 168.652 59.9342 166.76 59.2302 164.648C58.5262 162.536 57.9542 160.38 57.5142 158.18C57.1622 155.892 56.8982 153.648 56.7222 151.448C56.5462 149.248 56.4582 147.224 56.4582 145.376C56.8102 125.664 58.6142 112.552 61.8702 106.04C64.2462 101.2 67.1062 98.78 70.4502 98.78C71.3302 98.78 72.2982 98.956 73.3542 99.308C75.0262 99.308 75.8622 101.332 75.8622 105.38C75.8622 108.108 74.7622 116.864 72.5622 131.648C71.7702 140.8 71.6822 147.708 72.2982 152.372C72.9142 156.948 74.0142 159.852 75.5982 161.084C77.0062 162.316 79.0742 163.064 81.8022 163.328C81.9782 163.328 82.1542 163.328 82.3302 163.328V176ZM81.1948 206.888C79.6108 206.888 78.3788 206.316 77.4988 205.172C75.9148 202.532 75.1228 200.2 75.1228 198.176C75.1228 196.504 75.7388 195.052 76.9708 193.82C83.5708 192.06 87.7068 190.916 89.3788 190.388C90.4348 190.036 92.1948 189.552 94.6588 188.936C100.115 187.704 103.151 187.088 103.767 187.088C105.087 187.088 106.143 187.396 106.935 188.012C107.815 188.628 108.431 190.432 108.783 193.424C108.783 194.92 107.947 196.152 106.275 197.12C104.691 198.176 96.7708 201.388 82.5148 206.756L81.1948 206.888ZM80.4028 163.328H82.9108C85.9908 163.064 89.4668 160.864 93.3388 156.728C96.8588 152.856 98.6188 147.136 98.6188 139.568C98.6188 133.76 99.2788 129.712 100.599 127.424C102.183 124.696 105.087 123.332 109.311 123.332C114.151 123.332 116.571 125.268 116.571 129.14L116.703 132.044C116.703 136.18 116.175 140.228 115.119 144.188C114.063 148.148 112.875 152.196 111.555 156.332C108.299 166.188 103.239 172.084 96.3748 174.02C91.6228 175.34 87.3988 176 83.7028 176C82.9108 176 82.1628 176 81.4588 176C81.1068 176 80.7548 176 80.4028 176V163.328Z" fill="#704DF9"/>
<path d="M123.876 170.076C123.876 169.927 123.904 169.787 123.96 169.656C124.035 169.525 124.119 169.413 124.212 169.32C124.305 169.208 124.417 169.124 124.548 169.068C124.697 168.993 124.837 168.956 124.968 168.956H134.32C134.451 168.956 134.581 168.993 134.712 169.068C134.861 169.124 134.983 169.208 135.076 169.32C135.188 169.432 135.272 169.572 135.328 169.74C135.403 169.889 135.44 170.057 135.44 170.244C135.44 170.3 135.403 170.384 135.328 170.496C135.272 170.589 135.197 170.692 135.104 170.804C135.011 170.897 134.908 170.991 134.796 171.084C134.703 171.159 134.609 171.196 134.516 171.196H127.404C127.367 171.271 127.329 171.327 127.292 171.364C127.255 171.42 127.217 171.467 127.18 171.504C127.143 171.541 127.096 171.56 127.04 171.56L126.844 171.756V175.088L127.236 175.48H133.76C133.947 175.48 134.096 175.527 134.208 175.62C134.339 175.695 134.432 175.797 134.488 175.928C134.563 176.059 134.609 176.199 134.628 176.348C134.665 176.497 134.684 176.647 134.684 176.796C134.684 176.927 134.665 177.067 134.628 177.216C134.609 177.347 134.563 177.468 134.488 177.58C134.432 177.673 134.339 177.757 134.208 177.832C134.096 177.888 133.947 177.916 133.76 177.916H127.236L126.844 178.476V182.592L127.236 182.956H134.32C134.507 182.956 134.675 183.003 134.824 183.096C134.992 183.171 135.132 183.273 135.244 183.404C135.356 183.516 135.449 183.656 135.524 183.824C135.599 183.973 135.636 184.113 135.636 184.244C135.636 184.337 135.627 184.449 135.608 184.58C135.608 184.711 135.589 184.832 135.552 184.944C135.515 185.056 135.459 185.149 135.384 185.224C135.309 185.317 135.207 185.364 135.076 185.364H124.604C124.473 185.233 124.352 185.103 124.24 184.972C124.147 184.879 124.063 184.776 123.988 184.664C123.913 184.552 123.876 184.477 123.876 184.44V170.076ZM142.557 175.088C142.557 174.771 142.669 174.509 142.893 174.304C143.117 174.08 143.388 173.903 143.705 173.772C144.022 173.641 144.349 173.548 144.685 173.492C145.021 173.436 145.31 173.408 145.553 173.408C145.964 173.408 146.384 173.492 146.813 173.66C147.242 173.809 147.625 174.024 147.961 174.304C148.297 174.584 148.568 174.92 148.773 175.312C148.978 175.704 149.081 176.133 149.081 176.6V184.44C149.081 184.571 149.034 184.701 148.941 184.832C148.866 184.944 148.764 185.037 148.633 185.112C148.521 185.187 148.381 185.243 148.213 185.28C148.064 185.336 147.924 185.364 147.793 185.364C147.644 185.364 147.494 185.336 147.345 185.28C147.196 185.243 147.056 185.177 146.925 185.084C146.794 184.991 146.682 184.879 146.589 184.748C146.514 184.599 146.477 184.431 146.477 184.244V177.524C146.477 177.057 146.346 176.684 146.085 176.404C145.824 176.105 145.497 175.881 145.105 175.732C144.713 175.564 144.302 175.452 143.873 175.396C143.444 175.321 143.07 175.284 142.753 175.284L142.557 175.088ZM139.925 173.8C140.224 173.8 140.457 173.875 140.625 174.024C140.793 174.155 140.924 174.332 141.017 174.556C141.129 174.761 141.213 174.985 141.269 175.228C141.344 175.452 141.4 175.657 141.437 175.844V177.72C141.437 178.373 141.437 178.961 141.437 179.484C141.437 180.007 141.428 180.529 141.409 181.052C141.409 181.556 141.39 182.097 141.353 182.676C141.334 183.236 141.297 183.889 141.241 184.636C141.148 184.823 141.064 184.963 140.989 185.056C140.914 185.149 140.83 185.215 140.737 185.252C140.662 185.308 140.578 185.336 140.485 185.336C140.392 185.355 140.27 185.364 140.121 185.364C139.99 185.364 139.841 185.355 139.673 185.336C139.524 185.336 139.384 185.308 139.253 185.252C139.141 185.215 139.038 185.149 138.945 185.056C138.87 184.963 138.833 184.823 138.833 184.636V174.528C138.833 174.397 138.87 174.285 138.945 174.192C139.038 174.099 139.141 174.024 139.253 173.968C139.365 173.912 139.486 173.875 139.617 173.856C139.748 173.819 139.85 173.8 139.925 173.8ZM153.064 187.24H153.82C154.156 187.24 154.464 187.296 154.744 187.408C155.043 187.539 155.332 187.669 155.612 187.8C155.911 187.931 156.219 188.052 156.536 188.164C156.854 188.295 157.199 188.36 157.572 188.36C158.076 188.36 158.496 188.285 158.832 188.136C159.168 188.005 159.439 187.809 159.644 187.548C159.85 187.287 159.99 186.951 160.064 186.54C160.139 186.148 160.176 185.7 160.176 185.196C160.176 184.804 160.139 184.384 160.064 183.936C160.008 183.488 159.98 183.04 159.98 182.592C159.98 182.013 160.008 181.481 160.064 180.996C160.139 180.492 160.176 179.96 160.176 179.4C160.176 178.84 160.139 178.317 160.064 177.832C160.008 177.328 159.98 176.796 159.98 176.236C159.98 175.993 160.018 175.732 160.092 175.452C160.167 175.172 160.27 174.911 160.4 174.668C160.55 174.425 160.727 174.22 160.932 174.052C161.138 173.884 161.39 173.8 161.688 173.8C161.912 173.8 162.099 173.837 162.248 173.912C162.398 173.968 162.519 174.061 162.612 174.192C162.706 174.323 162.78 174.481 162.836 174.668C162.892 174.855 162.939 175.06 162.976 175.284V179.96C162.976 180.259 162.986 180.641 163.004 181.108C163.023 181.575 163.032 182.079 163.032 182.62C163.051 183.161 163.042 183.731 163.004 184.328C162.986 184.925 162.93 185.513 162.836 186.092C162.762 186.671 162.64 187.221 162.472 187.744C162.304 188.267 162.071 188.724 161.772 189.116C161.492 189.508 161.147 189.816 160.736 190.04C160.326 190.283 159.831 190.404 159.252 190.404H155.5C155.22 190.404 154.922 190.339 154.604 190.208C154.287 190.096 153.979 189.928 153.68 189.704C153.4 189.499 153.167 189.256 152.98 188.976C152.794 188.715 152.7 188.444 152.7 188.164C152.7 188.071 152.691 187.977 152.672 187.884C152.672 187.809 152.672 187.725 152.672 187.632C152.691 187.557 152.728 187.483 152.784 187.408C152.84 187.352 152.934 187.296 153.064 187.24ZM156.62 173.408C156.919 173.408 157.218 173.445 157.516 173.52C157.815 173.595 158.095 173.716 158.356 173.884C158.618 174.052 158.832 174.267 159 174.528C159.168 174.789 159.252 175.107 159.252 175.48C158.506 175.48 157.843 175.527 157.264 175.62C156.686 175.713 156.191 175.9 155.78 176.18C155.388 176.46 155.09 176.861 154.884 177.384C154.679 177.888 154.576 178.56 154.576 179.4C154.576 180.147 154.67 180.772 154.856 181.276C155.043 181.78 155.323 182.181 155.696 182.48C156.07 182.779 156.536 182.993 157.096 183.124C157.656 183.255 158.31 183.32 159.056 183.32L159.252 183.516C159.252 183.833 159.159 184.113 158.972 184.356C158.786 184.58 158.552 184.767 158.272 184.916C157.992 185.065 157.684 185.177 157.348 185.252C157.031 185.327 156.732 185.364 156.452 185.364C155.65 185.364 154.959 185.196 154.38 184.86C153.802 184.524 153.316 184.076 152.924 183.516C152.532 182.956 152.243 182.321 152.056 181.612C151.87 180.884 151.776 180.147 151.776 179.4C151.776 178.691 151.87 177.991 152.056 177.3C152.262 176.591 152.56 175.947 152.952 175.368C153.344 174.789 153.839 174.323 154.436 173.968C155.052 173.595 155.78 173.408 156.62 173.408ZM166.231 184.44V169.88C166.231 169.693 166.278 169.553 166.371 169.46C166.483 169.348 166.605 169.273 166.735 169.236C166.885 169.18 167.025 169.152 167.155 169.152C167.305 169.133 167.426 169.124 167.519 169.124C167.762 169.124 167.967 169.171 168.135 169.264C168.303 169.339 168.434 169.451 168.527 169.6C168.639 169.749 168.714 169.917 168.751 170.104C168.807 170.272 168.835 170.449 168.835 170.636V183.88C168.835 184.347 168.705 184.711 168.443 184.972C168.182 185.233 167.809 185.364 167.323 185.364C167.249 185.364 167.146 185.336 167.015 185.28C166.885 185.243 166.763 185.187 166.651 185.112C166.539 185.037 166.437 184.944 166.343 184.832C166.269 184.701 166.231 184.571 166.231 184.44ZM173.531 173.8C174.016 173.8 174.389 173.931 174.651 174.192C174.912 174.453 175.043 174.817 175.043 175.284V183.88C175.043 184.347 174.912 184.711 174.651 184.972C174.389 185.233 174.016 185.364 173.531 185.364C173.456 185.364 173.353 185.336 173.223 185.28C173.092 185.243 172.971 185.187 172.859 185.112C172.747 185.037 172.644 184.944 172.551 184.832C172.476 184.701 172.439 184.571 172.439 184.44V174.724C172.439 174.593 172.476 174.472 172.551 174.36C172.644 174.248 172.747 174.155 172.859 174.08C172.971 173.987 173.092 173.921 173.223 173.884C173.353 173.828 173.456 173.8 173.531 173.8ZM173.727 169.124C174.119 169.124 174.399 169.217 174.567 169.404C174.753 169.572 174.847 169.796 174.847 170.076C174.847 170.263 174.809 170.44 174.735 170.608C174.679 170.757 174.595 170.888 174.483 171C174.389 171.112 174.277 171.205 174.147 171.28C174.016 171.336 173.876 171.364 173.727 171.364C173.596 171.364 173.447 171.345 173.279 171.308C173.129 171.252 172.989 171.177 172.859 171.084C172.747 170.991 172.644 170.879 172.551 170.748C172.476 170.599 172.439 170.431 172.439 170.244C172.439 170.001 172.467 169.815 172.523 169.684C172.597 169.535 172.691 169.423 172.803 169.348C172.915 169.255 173.045 169.199 173.195 169.18C173.363 169.143 173.54 169.124 173.727 169.124ZM182.93 173.408C183.116 173.408 183.34 173.417 183.602 173.436C183.863 173.455 184.143 173.492 184.442 173.548C184.74 173.585 185.03 173.651 185.31 173.744C185.59 173.819 185.842 173.931 186.066 174.08C186.308 174.211 186.495 174.379 186.626 174.584C186.775 174.771 186.85 175.004 186.85 175.284C186.85 175.564 186.766 175.825 186.598 176.068C186.43 176.292 186.206 176.404 185.926 176.404H185.73C185.506 176.273 185.272 176.143 185.03 176.012C184.787 175.863 184.544 175.741 184.302 175.648C184.059 175.536 183.807 175.452 183.546 175.396C183.303 175.321 183.032 175.284 182.734 175.284C182.547 175.284 182.332 175.303 182.09 175.34C181.866 175.359 181.642 175.415 181.418 175.508C181.212 175.583 181.035 175.695 180.886 175.844C180.755 175.993 180.69 176.18 180.69 176.404C180.69 176.74 180.792 177.011 180.998 177.216C181.222 177.421 181.502 177.599 181.838 177.748C182.174 177.879 182.556 178 182.986 178.112C183.434 178.205 183.882 178.308 184.33 178.42C184.778 178.532 185.216 178.672 185.646 178.84C186.094 178.989 186.486 179.195 186.822 179.456C187.158 179.717 187.428 180.035 187.634 180.408C187.858 180.781 187.97 181.257 187.97 181.836C187.97 182.527 187.82 183.124 187.522 183.628C187.223 184.132 186.831 184.543 186.346 184.86C185.879 185.159 185.338 185.383 184.722 185.532C184.124 185.681 183.527 185.756 182.93 185.756C182.687 185.756 182.398 185.737 182.062 185.7C181.726 185.663 181.38 185.607 181.026 185.532C180.69 185.457 180.354 185.355 180.018 185.224C179.7 185.112 179.402 184.963 179.122 184.776C178.86 184.589 178.646 184.384 178.478 184.16C178.328 183.917 178.254 183.637 178.254 183.32C178.254 182.947 178.347 182.704 178.534 182.592C178.72 182.461 179 182.396 179.374 182.396C179.71 182.396 180.008 182.461 180.27 182.592C180.55 182.723 180.83 182.872 181.11 183.04C181.39 183.189 181.688 183.339 182.006 183.488C182.323 183.619 182.696 183.684 183.126 183.684C183.35 183.684 183.583 183.684 183.826 183.684C184.068 183.665 184.283 183.619 184.47 183.544C184.675 183.451 184.843 183.32 184.974 183.152C185.104 182.965 185.17 182.713 185.17 182.396C185.17 182.06 185.067 181.799 184.862 181.612C184.656 181.407 184.386 181.239 184.05 181.108C183.732 180.977 183.359 180.865 182.93 180.772C182.5 180.66 182.062 180.548 181.614 180.436C181.166 180.324 180.727 180.184 180.298 180.016C179.887 179.829 179.514 179.605 179.178 179.344C178.86 179.064 178.599 178.719 178.394 178.308C178.188 177.897 178.086 177.393 178.086 176.796C178.086 176.124 178.235 175.573 178.534 175.144C178.832 174.715 179.206 174.379 179.654 174.136C180.12 173.875 180.643 173.688 181.222 173.576C181.8 173.464 182.37 173.408 182.93 173.408ZM191.114 169.88C191.114 169.693 191.161 169.553 191.254 169.46C191.366 169.348 191.488 169.273 191.618 169.236C191.768 169.18 191.908 169.152 192.038 169.152C192.188 169.133 192.309 169.124 192.402 169.124C192.645 169.124 192.841 169.171 192.99 169.264C193.14 169.339 193.261 169.451 193.354 169.6C193.448 169.749 193.522 169.917 193.578 170.104C193.634 170.272 193.681 170.449 193.718 170.636C193.774 171.289 193.812 171.868 193.83 172.372C193.849 172.857 193.868 173.315 193.886 173.744C193.905 174.173 193.914 174.603 193.914 175.032C193.914 175.443 193.914 175.9 193.914 176.404C193.914 177.02 193.914 177.627 193.914 178.224C193.914 178.803 193.905 179.4 193.886 180.016C193.868 180.613 193.849 181.229 193.83 181.864C193.812 182.499 193.774 183.171 193.718 183.88C193.681 184.104 193.625 184.309 193.55 184.496C193.494 184.683 193.41 184.841 193.298 184.972C193.205 185.103 193.074 185.196 192.906 185.252C192.738 185.327 192.505 185.364 192.206 185.364C192.132 185.364 192.029 185.336 191.898 185.28C191.768 185.243 191.646 185.187 191.534 185.112C191.422 185.037 191.32 184.944 191.226 184.832C191.152 184.701 191.114 184.571 191.114 184.44V169.88ZM195.034 175.088C195.034 174.771 195.128 174.509 195.314 174.304C195.501 174.08 195.725 173.903 195.986 173.772C196.248 173.641 196.528 173.548 196.826 173.492C197.144 173.436 197.414 173.408 197.638 173.408C198.105 173.408 198.562 173.501 199.01 173.688C199.458 173.856 199.85 174.099 200.186 174.416C200.541 174.715 200.821 175.069 201.026 175.48C201.25 175.891 201.362 176.329 201.362 176.796V184.44C201.362 184.571 201.316 184.701 201.222 184.832C201.148 184.944 201.045 185.037 200.914 185.112C200.802 185.187 200.662 185.243 200.494 185.28C200.345 185.336 200.205 185.364 200.074 185.364C199.925 185.364 199.776 185.336 199.626 185.28C199.477 185.243 199.337 185.177 199.206 185.084C199.076 184.991 198.964 184.879 198.87 184.748C198.796 184.599 198.758 184.431 198.758 184.244V177.356C198.758 176.889 198.628 176.516 198.366 176.236C198.105 175.956 197.778 175.751 197.386 175.62C197.013 175.489 196.63 175.405 196.238 175.368C195.846 175.312 195.501 175.284 195.202 175.284L195.034 175.088ZM208.997 184.076V170.44C208.997 170.253 209.034 170.085 209.109 169.936C209.202 169.768 209.314 169.628 209.445 169.516C209.594 169.385 209.753 169.292 209.921 169.236C210.108 169.161 210.294 169.124 210.481 169.124C210.574 169.124 210.705 169.152 210.873 169.208C211.041 169.245 211.209 169.311 211.377 169.404C211.545 169.497 211.685 169.619 211.797 169.768C211.909 169.899 211.965 170.057 211.965 170.244V182.592L212.357 182.956H218.713C218.881 182.956 219.04 183.003 219.189 183.096C219.357 183.171 219.497 183.273 219.609 183.404C219.74 183.516 219.833 183.656 219.889 183.824C219.964 183.973 220.001 184.113 220.001 184.244C220.001 184.375 219.982 184.515 219.945 184.664C219.926 184.795 219.889 184.907 219.833 185C219.777 185.112 219.693 185.196 219.581 185.252C219.488 185.327 219.376 185.364 219.245 185.364H209.921C209.79 185.364 209.669 185.308 209.557 185.196C209.445 185.103 209.342 184.991 209.249 184.86C209.174 184.711 209.109 184.571 209.053 184.44C209.016 184.291 208.997 184.169 208.997 184.076ZM221.744 179.596C221.744 178.849 221.847 178.112 222.052 177.384C222.276 176.637 222.603 175.975 223.032 175.396C223.462 174.799 224.003 174.323 224.656 173.968C225.328 173.595 226.103 173.408 226.98 173.408C227.727 173.408 228.418 173.557 229.052 173.856C229.706 174.136 230.256 174.519 230.704 175.004C231.171 175.489 231.535 176.068 231.796 176.74C232.076 177.393 232.216 178.093 232.216 178.84C232.216 178.933 232.207 179.055 232.188 179.204C232.188 179.353 232.16 179.503 232.104 179.652C232.067 179.783 231.992 179.904 231.88 180.016C231.787 180.109 231.647 180.156 231.46 180.156H225.104C225.011 180.156 224.936 180.193 224.88 180.268C224.843 180.343 224.815 180.436 224.796 180.548C224.778 180.66 224.759 180.763 224.74 180.856C224.74 180.949 224.74 181.024 224.74 181.08C224.74 181.453 224.806 181.799 224.936 182.116C225.067 182.433 225.244 182.713 225.468 182.956C225.711 183.18 225.991 183.357 226.308 183.488C226.626 183.619 226.971 183.684 227.344 183.684C227.643 183.684 227.904 183.619 228.128 183.488C228.371 183.339 228.604 183.189 228.828 183.04C229.071 182.872 229.314 182.723 229.556 182.592C229.799 182.461 230.06 182.396 230.34 182.396C230.62 182.396 230.844 182.48 231.012 182.648C231.199 182.816 231.292 183.04 231.292 183.32C231.292 183.787 231.143 184.179 230.844 184.496C230.564 184.813 230.219 185.065 229.808 185.252C229.398 185.439 228.968 185.569 228.52 185.644C228.072 185.719 227.68 185.756 227.344 185.756C226.467 185.756 225.674 185.597 224.964 185.28C224.274 184.981 223.686 184.561 223.2 184.02C222.734 183.46 222.37 182.807 222.108 182.06C221.866 181.295 221.744 180.473 221.744 179.596ZM225.104 178.644H229.024C229.08 178.644 229.136 178.616 229.192 178.56C229.267 178.504 229.332 178.439 229.388 178.364C229.444 178.271 229.491 178.187 229.528 178.112C229.566 178.019 229.584 177.953 229.584 177.916C229.584 177.58 229.51 177.272 229.36 176.992C229.211 176.693 229.015 176.432 228.772 176.208C228.53 175.984 228.25 175.807 227.932 175.676C227.634 175.545 227.316 175.48 226.98 175.48C226.7 175.48 226.42 175.545 226.14 175.676C225.879 175.807 225.646 175.984 225.44 176.208C225.235 176.432 225.067 176.693 224.936 176.992C224.806 177.272 224.74 177.58 224.74 177.916C224.74 177.953 224.74 178.019 224.74 178.112C224.759 178.187 224.778 178.271 224.796 178.364C224.815 178.439 224.843 178.504 224.88 178.56C224.936 178.616 225.011 178.644 225.104 178.644ZM234.409 182.396C234.409 181.78 234.512 181.276 234.717 180.884C234.922 180.473 235.193 180.147 235.529 179.904C235.865 179.643 236.238 179.437 236.649 179.288C237.078 179.139 237.508 179.017 237.937 178.924C238.385 178.812 238.824 178.719 239.253 178.644C239.682 178.569 240.056 178.467 240.373 178.336C240.709 178.187 240.98 178.009 241.185 177.804C241.39 177.599 241.493 177.319 241.493 176.964C241.493 176.684 241.428 176.451 241.297 176.264C241.185 176.077 241.026 175.928 240.821 175.816C240.634 175.704 240.42 175.62 240.177 175.564C239.934 175.508 239.692 175.48 239.449 175.48C239.132 175.48 238.833 175.545 238.553 175.676C238.292 175.788 238.03 175.909 237.769 176.04C237.526 176.171 237.284 176.301 237.041 176.432C236.817 176.544 236.556 176.6 236.257 176.6C235.977 176.6 235.753 176.516 235.585 176.348C235.417 176.18 235.333 175.956 235.333 175.676C235.333 175.209 235.482 174.827 235.781 174.528C236.098 174.229 236.472 174.005 236.901 173.856C237.33 173.688 237.778 173.576 238.245 173.52C238.73 173.445 239.132 173.408 239.449 173.408C240.009 173.408 240.578 173.464 241.157 173.576C241.736 173.688 242.258 173.875 242.725 174.136C243.192 174.379 243.574 174.715 243.873 175.144C244.172 175.573 244.321 176.124 244.321 176.796V184.804C244.321 184.935 244.284 185.037 244.209 185.112C244.153 185.205 244.078 185.271 243.985 185.308C243.892 185.345 243.789 185.364 243.677 185.364C243.565 185.364 243.462 185.364 243.369 185.364C243.145 185.364 242.893 185.308 242.613 185.196C242.352 185.103 242.109 184.972 241.885 184.804C241.661 184.636 241.474 184.459 241.325 184.272C241.194 184.067 241.129 183.871 241.129 183.684C241.129 183.441 241.148 183.208 241.185 182.984C241.222 182.76 241.26 182.536 241.297 182.312C241.353 182.069 241.4 181.836 241.437 181.612C241.474 181.369 241.493 181.136 241.493 180.912V180.156C241.4 179.969 241.306 179.857 241.213 179.82C241.12 179.783 241.026 179.764 240.933 179.764C240.56 179.764 240.158 179.811 239.729 179.904C239.3 179.979 238.898 180.1 238.525 180.268C238.152 180.436 237.834 180.669 237.573 180.968C237.33 181.248 237.209 181.603 237.209 182.032C237.209 182.536 237.321 182.919 237.545 183.18C237.788 183.441 238.077 183.628 238.413 183.74C238.768 183.833 239.15 183.88 239.561 183.88C239.99 183.88 240.392 183.88 240.765 183.88C240.765 184.216 240.662 184.505 240.457 184.748C240.252 184.972 240 185.159 239.701 185.308C239.402 185.457 239.094 185.569 238.777 185.644C238.46 185.719 238.189 185.756 237.965 185.756C237.442 185.756 236.966 185.672 236.537 185.504C236.108 185.355 235.734 185.14 235.417 184.86C235.1 184.561 234.848 184.207 234.661 183.796C234.493 183.367 234.409 182.9 234.409 182.396ZM247.438 174.724C247.438 174.444 247.55 174.22 247.774 174.052C248.016 173.884 248.278 173.8 248.558 173.8C248.8 173.8 248.996 173.875 249.146 174.024C249.295 174.155 249.435 174.304 249.566 174.472C249.696 174.621 249.827 174.761 249.958 174.892C250.088 175.023 250.247 175.088 250.434 175.088C250.564 175.088 250.714 175.004 250.882 174.836C251.05 174.668 251.227 174.481 251.414 174.276C251.619 174.052 251.834 173.856 252.058 173.688C252.3 173.501 252.562 173.408 252.842 173.408C253.028 173.408 253.196 173.445 253.346 173.52C253.514 173.576 253.654 173.66 253.766 173.772C253.896 173.865 253.99 173.987 254.046 174.136C254.12 174.267 254.158 174.397 254.158 174.528C254.158 174.845 254.092 175.097 253.962 175.284C253.831 175.452 253.654 175.583 253.43 175.676C253.224 175.769 252.991 175.835 252.73 175.872C252.468 175.909 252.207 175.937 251.946 175.956C251.684 175.975 251.432 176.003 251.19 176.04C250.966 176.077 250.77 176.143 250.602 176.236C250.564 176.292 250.536 176.357 250.518 176.432C250.499 176.488 250.48 176.553 250.462 176.628C250.443 176.684 250.434 176.74 250.434 176.796C250.434 176.833 250.424 176.945 250.406 177.132C250.387 177.319 250.359 177.524 250.322 177.748C250.303 177.953 250.284 178.168 250.266 178.392C250.247 178.597 250.238 178.747 250.238 178.84C250.238 178.971 250.228 179.176 250.21 179.456C250.21 179.736 250.2 180.053 250.182 180.408C250.182 180.763 250.172 181.145 250.154 181.556C250.135 181.948 250.116 182.331 250.098 182.704C250.079 183.059 250.06 183.376 250.042 183.656C250.042 183.936 250.042 184.132 250.042 184.244C250.042 184.636 249.92 184.916 249.678 185.084C249.435 185.271 249.118 185.364 248.726 185.364C248.595 185.364 248.455 185.336 248.306 185.28C248.156 185.243 248.016 185.177 247.886 185.084C247.755 184.991 247.643 184.879 247.55 184.748C247.475 184.599 247.438 184.431 247.438 184.244V174.724ZM260.08 175.088C260.08 174.771 260.192 174.509 260.416 174.304C260.64 174.08 260.911 173.903 261.228 173.772C261.546 173.641 261.872 173.548 262.208 173.492C262.544 173.436 262.834 173.408 263.076 173.408C263.487 173.408 263.907 173.492 264.336 173.66C264.766 173.809 265.148 174.024 265.484 174.304C265.82 174.584 266.091 174.92 266.296 175.312C266.502 175.704 266.604 176.133 266.604 176.6V184.44C266.604 184.571 266.558 184.701 266.464 184.832C266.39 184.944 266.287 185.037 266.156 185.112C266.044 185.187 265.904 185.243 265.736 185.28C265.587 185.336 265.447 185.364 265.316 185.364C265.167 185.364 265.018 185.336 264.868 185.28C264.719 185.243 264.579 185.177 264.448 185.084C264.318 184.991 264.206 184.879 264.112 184.748C264.038 184.599 264 184.431 264 184.244V177.524C264 177.057 263.87 176.684 263.608 176.404C263.347 176.105 263.02 175.881 262.628 175.732C262.236 175.564 261.826 175.452 261.396 175.396C260.967 175.321 260.594 175.284 260.276 175.284L260.08 175.088ZM257.448 173.8C257.747 173.8 257.98 173.875 258.148 174.024C258.316 174.155 258.447 174.332 258.54 174.556C258.652 174.761 258.736 174.985 258.792 175.228C258.867 175.452 258.923 175.657 258.96 175.844V177.72C258.96 178.373 258.96 178.961 258.96 179.484C258.96 180.007 258.951 180.529 258.932 181.052C258.932 181.556 258.914 182.097 258.876 182.676C258.858 183.236 258.82 183.889 258.764 184.636C258.671 184.823 258.587 184.963 258.512 185.056C258.438 185.149 258.354 185.215 258.26 185.252C258.186 185.308 258.102 185.336 258.008 185.336C257.915 185.355 257.794 185.364 257.644 185.364C257.514 185.364 257.364 185.355 257.196 185.336C257.047 185.336 256.907 185.308 256.776 185.252C256.664 185.215 256.562 185.149 256.468 185.056C256.394 184.963 256.356 184.823 256.356 184.636V174.528C256.356 174.397 256.394 174.285 256.468 174.192C256.562 174.099 256.664 174.024 256.776 173.968C256.888 173.912 257.01 173.875 257.14 173.856C257.271 173.819 257.374 173.8 257.448 173.8ZM271.148 173.8C271.633 173.8 272.006 173.931 272.268 174.192C272.529 174.453 272.66 174.817 272.66 175.284V183.88C272.66 184.347 272.529 184.711 272.268 184.972C272.006 185.233 271.633 185.364 271.148 185.364C271.073 185.364 270.97 185.336 270.84 185.28C270.709 185.243 270.588 185.187 270.476 185.112C270.364 185.037 270.261 184.944 270.168 184.832C270.093 184.701 270.056 184.571 270.056 184.44V174.724C270.056 174.593 270.093 174.472 270.168 174.36C270.261 174.248 270.364 174.155 270.476 174.08C270.588 173.987 270.709 173.921 270.84 173.884C270.97 173.828 271.073 173.8 271.148 173.8ZM271.344 169.124C271.736 169.124 272.016 169.217 272.184 169.404C272.37 169.572 272.464 169.796 272.464 170.076C272.464 170.263 272.426 170.44 272.352 170.608C272.296 170.757 272.212 170.888 272.1 171C272.006 171.112 271.894 171.205 271.764 171.28C271.633 171.336 271.493 171.364 271.344 171.364C271.213 171.364 271.064 171.345 270.896 171.308C270.746 171.252 270.606 171.177 270.476 171.084C270.364 170.991 270.261 170.879 270.168 170.748C270.093 170.599 270.056 170.431 270.056 170.244C270.056 170.001 270.084 169.815 270.14 169.684C270.214 169.535 270.308 169.423 270.42 169.348C270.532 169.255 270.662 169.199 270.812 169.18C270.98 169.143 271.157 169.124 271.344 169.124ZM279.987 175.088C279.987 174.771 280.099 174.509 280.323 174.304C280.547 174.08 280.817 173.903 281.135 173.772C281.452 173.641 281.779 173.548 282.115 173.492C282.451 173.436 282.74 173.408 282.983 173.408C283.393 173.408 283.813 173.492 284.243 173.66C284.672 173.809 285.055 174.024 285.391 174.304C285.727 174.584 285.997 174.92 286.203 175.312C286.408 175.704 286.511 176.133 286.511 176.6V184.44C286.511 184.571 286.464 184.701 286.371 184.832C286.296 184.944 286.193 185.037 286.063 185.112C285.951 185.187 285.811 185.243 285.643 185.28C285.493 185.336 285.353 185.364 285.223 185.364C285.073 185.364 284.924 185.336 284.775 185.28C284.625 185.243 284.485 185.177 284.355 185.084C284.224 184.991 284.112 184.879 284.019 184.748C283.944 184.599 283.907 184.431 283.907 184.244V177.524C283.907 177.057 283.776 176.684 283.515 176.404C283.253 176.105 282.927 175.881 282.535 175.732C282.143 175.564 281.732 175.452 281.303 175.396C280.873 175.321 280.5 175.284 280.183 175.284L279.987 175.088ZM277.355 173.8C277.653 173.8 277.887 173.875 278.055 174.024C278.223 174.155 278.353 174.332 278.447 174.556C278.559 174.761 278.643 174.985 278.699 175.228C278.773 175.452 278.829 175.657 278.867 175.844V177.72C278.867 178.373 278.867 178.961 278.867 179.484C278.867 180.007 278.857 180.529 278.839 181.052C278.839 181.556 278.82 182.097 278.783 182.676C278.764 183.236 278.727 183.889 278.671 184.636C278.577 184.823 278.493 184.963 278.419 185.056C278.344 185.149 278.26 185.215 278.167 185.252C278.092 185.308 278.008 185.336 277.915 185.336C277.821 185.355 277.7 185.364 277.551 185.364C277.42 185.364 277.271 185.355 277.103 185.336C276.953 185.336 276.813 185.308 276.683 185.252C276.571 185.215 276.468 185.149 276.375 185.056C276.3 184.963 276.263 184.823 276.263 184.636V174.528C276.263 174.397 276.3 174.285 276.375 174.192C276.468 174.099 276.571 174.024 276.683 173.968C276.795 173.912 276.916 173.875 277.047 173.856C277.177 173.819 277.28 173.8 277.355 173.8ZM290.494 187.24H291.25C291.586 187.24 291.894 187.296 292.174 187.408C292.473 187.539 292.762 187.669 293.042 187.8C293.341 187.931 293.649 188.052 293.966 188.164C294.283 188.295 294.629 188.36 295.002 188.36C295.506 188.36 295.926 188.285 296.262 188.136C296.598 188.005 296.869 187.809 297.074 187.548C297.279 187.287 297.419 186.951 297.494 186.54C297.569 186.148 297.606 185.7 297.606 185.196C297.606 184.804 297.569 184.384 297.494 183.936C297.438 183.488 297.41 183.04 297.41 182.592C297.41 182.013 297.438 181.481 297.494 180.996C297.569 180.492 297.606 179.96 297.606 179.4C297.606 178.84 297.569 178.317 297.494 177.832C297.438 177.328 297.41 176.796 297.41 176.236C297.41 175.993 297.447 175.732 297.522 175.452C297.597 175.172 297.699 174.911 297.83 174.668C297.979 174.425 298.157 174.22 298.362 174.052C298.567 173.884 298.819 173.8 299.118 173.8C299.342 173.8 299.529 173.837 299.678 173.912C299.827 173.968 299.949 174.061 300.042 174.192C300.135 174.323 300.21 174.481 300.266 174.668C300.322 174.855 300.369 175.06 300.406 175.284V179.96C300.406 180.259 300.415 180.641 300.434 181.108C300.453 181.575 300.462 182.079 300.462 182.62C300.481 183.161 300.471 183.731 300.434 184.328C300.415 184.925 300.359 185.513 300.266 186.092C300.191 186.671 300.07 187.221 299.902 187.744C299.734 188.267 299.501 188.724 299.202 189.116C298.922 189.508 298.577 189.816 298.166 190.04C297.755 190.283 297.261 190.404 296.682 190.404H292.93C292.65 190.404 292.351 190.339 292.034 190.208C291.717 190.096 291.409 189.928 291.11 189.704C290.83 189.499 290.597 189.256 290.41 188.976C290.223 188.715 290.13 188.444 290.13 188.164C290.13 188.071 290.121 187.977 290.102 187.884C290.102 187.809 290.102 187.725 290.102 187.632C290.121 187.557 290.158 187.483 290.214 187.408C290.27 187.352 290.363 187.296 290.494 187.24ZM294.05 173.408C294.349 173.408 294.647 173.445 294.946 173.52C295.245 173.595 295.525 173.716 295.786 173.884C296.047 174.052 296.262 174.267 296.43 174.528C296.598 174.789 296.682 175.107 296.682 175.48C295.935 175.48 295.273 175.527 294.694 175.62C294.115 175.713 293.621 175.9 293.21 176.18C292.818 176.46 292.519 176.861 292.314 177.384C292.109 177.888 292.006 178.56 292.006 179.4C292.006 180.147 292.099 180.772 292.286 181.276C292.473 181.78 292.753 182.181 293.126 182.48C293.499 182.779 293.966 182.993 294.526 183.124C295.086 183.255 295.739 183.32 296.486 183.32L296.682 183.516C296.682 183.833 296.589 184.113 296.402 184.356C296.215 184.58 295.982 184.767 295.702 184.916C295.422 185.065 295.114 185.177 294.778 185.252C294.461 185.327 294.162 185.364 293.882 185.364C293.079 185.364 292.389 185.196 291.81 184.86C291.231 184.524 290.746 184.076 290.354 183.516C289.962 182.956 289.673 182.321 289.486 181.612C289.299 180.884 289.206 180.147 289.206 179.4C289.206 178.691 289.299 177.991 289.486 177.3C289.691 176.591 289.99 175.947 290.382 175.368C290.774 174.789 291.269 174.323 291.866 173.968C292.482 173.595 293.21 173.408 294.05 173.408ZM306.893 183.684L311.765 170.804C311.858 170.524 311.961 170.272 312.073 170.048C312.203 169.824 312.353 169.628 312.521 169.46C312.707 169.292 312.913 169.171 313.137 169.096C313.379 169.003 313.669 168.956 314.005 168.956C314.229 168.956 314.462 168.975 314.705 169.012C314.947 169.031 315.171 169.087 315.377 169.18C315.601 169.273 315.787 169.404 315.937 169.572C316.086 169.74 316.189 169.964 316.245 170.244C316.338 170.487 316.469 170.823 316.637 171.252C316.805 171.681 316.991 172.176 317.197 172.736C317.421 173.296 317.654 173.903 317.897 174.556C318.139 175.191 318.391 175.844 318.653 176.516C318.914 177.169 319.166 177.823 319.409 178.476C319.67 179.129 319.903 179.736 320.109 180.296C320.333 180.837 320.529 181.323 320.697 181.752C320.865 182.181 320.995 182.517 321.089 182.76C321.182 182.947 321.247 183.105 321.285 183.236C321.341 183.367 321.378 183.488 321.397 183.6C321.434 183.712 321.453 183.833 321.453 183.964C321.453 184.095 321.453 184.253 321.453 184.44C321.453 184.627 321.415 184.785 321.341 184.916C321.285 185.028 321.201 185.112 321.089 185.168C320.995 185.243 320.883 185.289 320.753 185.308C320.622 185.345 320.482 185.364 320.333 185.364C319.959 185.364 319.642 185.28 319.381 185.112C319.138 184.944 318.933 184.729 318.765 184.468C318.597 184.188 318.447 183.899 318.317 183.6C318.205 183.301 318.093 183.021 317.981 182.76C317.869 182.48 317.747 182.256 317.617 182.088C317.505 181.92 317.355 181.836 317.169 181.836H311.009C310.822 181.836 310.673 181.92 310.561 182.088C310.449 182.256 310.337 182.48 310.225 182.76C310.131 183.021 310.029 183.301 309.917 183.6C309.823 183.899 309.693 184.188 309.525 184.468C309.375 184.729 309.179 184.944 308.937 185.112C308.694 185.28 308.386 185.364 308.013 185.364C307.266 185.364 306.893 184.991 306.893 184.244V183.684ZM311.933 178.084V178.476C311.933 178.644 311.979 178.812 312.073 178.98C312.185 179.129 312.325 179.204 312.493 179.204H315.685C315.853 179.204 315.983 179.129 316.077 178.98C316.189 178.812 316.245 178.644 316.245 178.476V178.084L314.565 173.408C314.453 173.24 314.35 173.137 314.257 173.1C314.182 173.063 314.098 173.044 314.005 173.044C313.911 173.044 313.837 173.072 313.781 173.128C313.725 173.165 313.678 173.221 313.641 173.296C313.603 173.352 313.566 173.427 313.529 173.52C313.51 173.613 313.482 173.707 313.445 173.8C313.407 173.893 313.351 174.052 313.277 174.276C313.202 174.5 313.109 174.761 312.997 175.06C312.903 175.34 312.801 175.639 312.689 175.956C312.577 176.273 312.465 176.581 312.353 176.88C312.259 177.16 312.175 177.412 312.101 177.636C312.026 177.86 311.97 178.009 311.933 178.084ZM325.124 173.8C325.33 173.8 325.516 173.865 325.684 173.996C325.871 174.108 326.03 174.257 326.16 174.444C326.31 174.612 326.422 174.799 326.496 175.004C326.59 175.191 326.636 175.349 326.636 175.48V180.52C326.636 181.565 326.86 182.331 327.308 182.816C327.775 183.283 328.484 183.516 329.436 183.516C329.996 183.516 330.454 183.404 330.808 183.18C331.182 182.937 331.471 182.629 331.676 182.256C331.882 181.883 332.022 181.463 332.096 180.996C332.19 180.529 332.236 180.063 332.236 179.596C332.236 179.428 332.218 179.223 332.18 178.98C332.162 178.719 332.124 178.448 332.068 178.168C332.012 177.869 331.928 177.571 331.816 177.272C331.723 176.973 331.602 176.712 331.452 176.488C331.303 176.245 331.126 176.049 330.92 175.9C330.715 175.751 330.472 175.676 330.192 175.676H327.56L327.392 175.48C327.392 175.107 327.486 174.789 327.672 174.528C327.878 174.267 328.13 174.052 328.428 173.884C328.746 173.716 329.072 173.595 329.408 173.52C329.763 173.445 330.08 173.408 330.36 173.408C331.163 173.408 331.854 173.604 332.432 173.996C333.011 174.369 333.496 174.855 333.888 175.452C334.28 176.049 334.57 176.712 334.756 177.44C334.943 178.168 335.036 178.887 335.036 179.596C335.036 180.287 334.943 180.996 334.756 181.724C334.57 182.452 334.28 183.115 333.888 183.712C333.496 184.309 333.011 184.795 332.432 185.168C331.854 185.56 331.163 185.756 330.36 185.756C329.707 185.756 329.138 185.625 328.652 185.364C328.186 185.103 327.766 184.729 327.392 184.244H327.196C327.159 184.244 327.103 184.272 327.028 184.328C326.972 184.365 326.916 184.412 326.86 184.468C326.804 184.524 326.748 184.589 326.692 184.664C326.655 184.72 326.636 184.767 326.636 184.804V189.088C326.636 189.237 326.571 189.368 326.44 189.48C326.328 189.611 326.188 189.713 326.02 189.788C325.871 189.863 325.712 189.919 325.544 189.956C325.376 190.012 325.236 190.04 325.124 190.04C324.994 190.04 324.854 190.012 324.704 189.956C324.555 189.919 324.415 189.853 324.284 189.76C324.154 189.667 324.042 189.545 323.948 189.396C323.874 189.265 323.836 189.107 323.836 188.92V174.92C323.836 174.733 323.874 174.575 323.948 174.444C324.042 174.295 324.154 174.173 324.284 174.08C324.415 173.987 324.555 173.921 324.704 173.884C324.854 173.828 324.994 173.8 325.124 173.8ZM338.823 173.8C339.029 173.8 339.215 173.865 339.383 173.996C339.57 174.108 339.729 174.257 339.859 174.444C340.009 174.612 340.121 174.799 340.195 175.004C340.289 175.191 340.335 175.349 340.335 175.48V180.52C340.335 181.565 340.559 182.331 341.007 182.816C341.474 183.283 342.183 183.516 343.135 183.516C343.695 183.516 344.153 183.404 344.507 183.18C344.881 182.937 345.17 182.629 345.375 182.256C345.581 181.883 345.721 181.463 345.795 180.996C345.889 180.529 345.935 180.063 345.935 179.596C345.935 179.428 345.917 179.223 345.879 178.98C345.861 178.719 345.823 178.448 345.767 178.168C345.711 177.869 345.627 177.571 345.515 177.272C345.422 176.973 345.301 176.712 345.151 176.488C345.002 176.245 344.825 176.049 344.619 175.9C344.414 175.751 344.171 175.676 343.891 175.676H341.259L341.091 175.48C341.091 175.107 341.185 174.789 341.371 174.528C341.577 174.267 341.829 174.052 342.127 173.884C342.445 173.716 342.771 173.595 343.107 173.52C343.462 173.445 343.779 173.408 344.059 173.408C344.862 173.408 345.553 173.604 346.131 173.996C346.71 174.369 347.195 174.855 347.587 175.452C347.979 176.049 348.269 176.712 348.455 177.44C348.642 178.168 348.735 178.887 348.735 179.596C348.735 180.287 348.642 180.996 348.455 181.724C348.269 182.452 347.979 183.115 347.587 183.712C347.195 184.309 346.71 184.795 346.131 185.168C345.553 185.56 344.862 185.756 344.059 185.756C343.406 185.756 342.837 185.625 342.351 185.364C341.885 185.103 341.465 184.729 341.091 184.244H340.895C340.858 184.244 340.802 184.272 340.727 184.328C340.671 184.365 340.615 184.412 340.559 184.468C340.503 184.524 340.447 184.589 340.391 184.664C340.354 184.72 340.335 184.767 340.335 184.804V189.088C340.335 189.237 340.27 189.368 340.139 189.48C340.027 189.611 339.887 189.713 339.719 189.788C339.57 189.863 339.411 189.919 339.243 189.956C339.075 190.012 338.935 190.04 338.823 190.04C338.693 190.04 338.553 190.012 338.403 189.956C338.254 189.919 338.114 189.853 337.983 189.76C337.853 189.667 337.741 189.545 337.647 189.396C337.573 189.265 337.535 189.107 337.535 188.92V174.92C337.535 174.733 337.573 174.575 337.647 174.444C337.741 174.295 337.853 174.173 337.983 174.08C338.114 173.987 338.254 173.921 338.403 173.884C338.553 173.828 338.693 173.8 338.823 173.8Z" fill="#704DF9"/>
<path d="M103.919 49.9505L72.1532 33.7892C71.1228 33.2647 70.0253 33 68.8914 33C67.7574 33 66.6602 33.2647 65.6296 33.7892L33.8641 49.9505C33.339 50.2187 33 50.8034 33 51.4423C33 52.0811 33.339 52.6658 33.8641 52.934L65.6296 69.0953C66.6599 69.6198 67.7574 69.8857 68.8914 69.8857C70.0253 69.8857 71.1228 69.6198 72.1534 69.0953L97.223 56.3413V69.1844C96.2281 69.3084 95.4523 70.2443 95.4523 71.3752C95.4523 72.3606 96.0422 73.2136 96.8832 73.4854L95.1878 85.8497H102.994L101.299 73.4854C102.139 73.2136 102.729 72.3606 102.729 71.3752C102.729 70.2443 101.953 69.3084 100.959 69.1844V54.4404L103.919 52.934C104.444 52.6658 104.783 52.0811 104.783 51.4423C104.783 50.8034 104.444 50.2187 103.919 49.9505Z" fill="#704DF9"/>
<path d="M68.8914 75.7376C67.3147 75.7376 65.7869 75.367 64.3508 74.6367L48.8137 66.7312V82.4809C48.8137 85.9386 58.2668 90.3251 68.8914 90.3251C79.5161 90.3251 88.9694 85.9385 88.9694 82.4809V66.7312L73.4314 74.6367C71.9961 75.367 70.4686 75.7376 68.8914 75.7376Z" fill="#704DF9"/>
</svg>
